HIERARCHY
ROOT Hips
{
	OFFSET 0.00000 0.00000 0.00000
	CHANNELS 6 Xposition Yposition Zposition Zrotation Yrotation Xrotation 
	JOINT LHipJoint
	{
		OFFSET 0 0 0
		CHANNELS 3 Zrotation Yrotation Xrotation
		JOINT LeftUpLeg
		{
			OFFSET 1.58895 -1.83665 0.71753
			CHANNELS 3 Zrotation Yrotation Xrotation
			JOINT LeftLeg
			{
				OFFSET 2.50528 -6.88321 0.00000
				CHANNELS 3 Zrotation Yrotation Xrotation
				JOINT LeftFoot
				{
					OFFSET 2.63244 -7.23257 0.00000
					CHANNELS 3 Zrotation Yrotation Xrotation
					JOINT LeftToeBase
					{
						OFFSET 0.23691 -0.65090 1.72750
						CHANNELS 3 Zrotation Yrotation Xrotation
						End Site
						{
							OFFSET 0.00000 -0.00000 0.92561
						}
					}
				}
			}
		}
	}
	JOINT RHipJoint
	{
		OFFSET 0 0 0
		CHANNELS 3 Zrotation Yrotation Xrotation
		JOINT RightUpLeg
		{
			OFFSET -1.51435 -1.83665 0.71753
			CHANNELS 3 Zrotation Yrotation Xrotation
			JOINT RightLeg
			{
				OFFSET -2.54551 -6.99375 0.00000
				CHANNELS 3 Zrotation Yrotation Xrotation
				JOINT RightFoot
				{
					OFFSET -2.66027 -7.30903 0.00000
					CHANNELS 3 Zrotation Yrotation Xrotation
					JOINT RightToeBase
					{
						OFFSET -0.22981 -0.63138 2.03959
						CHANNELS 3 Zrotation Yrotation Xrotation
						End Site
						{
							OFFSET -0.00000 -0.00000 1.07060
						}
					}
				}
			}
		}
	}
	JOINT LowerBack
	{
		OFFSET 0 0 0
		CHANNELS 3 Zrotation Yrotation Xrotation
		JOINT Spine
		{
			OFFSET -0.02651 1.86275 -0.11152
			CHANNELS 3 Zrotation Yrotation Xrotation
			JOINT Spine1
			{
				OFFSET 0.01019 1.86224 0.04087
				CHANNELS 3 Zrotation Yrotation Xrotation
				JOINT Neck
				{
					OFFSET 0 0 0
					CHANNELS 3 Zrotation Yrotation Xrotation
					JOINT Neck1
					{
						OFFSET -0.01926 1.80512 0.08867
						CHANNELS 3 Zrotation Yrotation Xrotation
						JOINT Head
						{
							OFFSET 0.05516 1.76451 -0.38475
							CHANNELS 3 Zrotation Yrotation Xrotation
							End Site
							{
								OFFSET 0.01592 1.82587 -0.14001
							}
						}
					}
				}
				JOINT LeftShoulder
				{
					OFFSET 0 0 0
					CHANNELS 3 Zrotation Yrotation Xrotation
					JOINT LeftArm
					{
						OFFSET 3.47116 1.51376 0.14491
						CHANNELS 3 Zrotation Yrotation Xrotation
						JOINT LeftForeArm
						{
							OFFSET 4.78095 -0.00000 0.00000
							CHANNELS 3 Zrotation Yrotation Xrotation
							JOINT LeftHand
							{
								OFFSET 3.58615 -0.00000 -0.00000
								CHANNELS 3 Zrotation Yrotation Xrotation
								JOINT LeftFingerBase
								{
									OFFSET 0 0 0
									CHANNELS 3 Zrotation Yrotation Xrotation
									JOINT LeftHandIndex1
									{
										OFFSET 0.65981 -0.00000 0.00000
										CHANNELS 3 Zrotation Yrotation Xrotation
										End Site
										{
											OFFSET 0.53196 -0.00000 0.00000
										}
									}
								}
								JOINT LThumb
								{
									OFFSET 0 0 0
									CHANNELS 3 Zrotation Yrotation Xrotation
									End Site
									{
										OFFSET 0.54008 -0.00000 0.54008
									}
								}
							}
						}
					}
				}
				JOINT RightShoulder
				{
					OFFSET 0 0 0
					CHANNELS 3 Zrotation Yrotation Xrotation
					JOINT RightArm
					{
						OFFSET -3.31725 1.61216 0.35156
						CHANNELS 3 Zrotation Yrotation Xrotation
						JOINT RightForeArm
						{
							OFFSET -4.48913 -0.00000 0.00000
							CHANNELS 3 Zrotation Yrotation Xrotation
							JOINT RightHand
							{
								OFFSET -3.70510 -0.00000 0.00000
								CHANNELS 3 Zrotation Yrotation Xrotation
								JOINT RightFingerBase
								{
									OFFSET 0 0 0
									CHANNELS 3 Zrotation Yrotation Xrotation
									JOINT RightHandIndex1
									{
										OFFSET -0.44914 -0.00000 0.00000
										CHANNELS 3 Zrotation Yrotation Xrotation
										End Site
										{
											OFFSET -0.36211 -0.00000 0.00000
										}
									}
								}
								JOINT RThumb
								{
									OFFSET 0 0 0
									CHANNELS 3 Zrotation Yrotation Xrotation
									End Site
									{
										OFFSET -0.36763 -0.00000 0.36763
									}
								}
							}
						}
					}
				}
			}
		}
	}
}
MOTION
Frames: 15
Frame Time: .0083333
-0.0924 18.8679 4.2815 -3.3458 -3.8057 19.2598 0.0000 0.0000 0.0000 -9.2004 -7.1066 -32.9358 2.4422 9.7321 28.1134 0.7532 4.4147 -18.5796 8.1329 -16.2161 -53.0398 0.0000 0.0000 0.0000 0.0000 0.0000 0.0000 0.0000 0.0000 0.0000 -0.0000 -0.0000 0.0000 -0.0000 -0.0000 0.0000 -10.9078 3.8180 54.2681 -4.3574 -2.4039 8.1609 1.1151 -0.7450 -11.5165 1.9593 2.3338 -29.1353 1.7566 2.0471 12.2567 0.6112 1.2808 8.4642 -0.0000 -0.0000 0.0000 -96.3306 -60.4278 29.9101 30.1900 -41.0557 -11.5342 -0.0000 0.0000 -83.3268 36.0470 -9.1399 -6.5946 -7.1250 0.0000 -0.0000 6.4459 18.7652 -4.0554 -0.0000 -0.0000 0.0000 76.2529 21.9238 59.0843 -87.4948 59.9763 -57.8306 0.0000 -0.0000 -82.9684 -57.7992 -48.7384 50.0449 7.1250 -0.0000 -0.0000 -132.3109 83.2088 -137.5479
-0.0946 18.8664 4.2802 -3.3850 -3.6830 19.2344 0.0000 0.0000 0.0000 -9.1267 -7.1611 -32.9225 2.4450 9.7372 28.1299 0.7574 4.3635 -18.5913 8.0982 -16.1910 -52.9156 0.0000 0.0000 0.0000 0.0000 0.0000 0.0000 0.0000 0.0000 0.0000 -0.0000 -0.0000 0.0000 -0.0000 -0.0000 0.0000 -10.8803 3.7443 54.2911 -4.3884 -2.4825 8.1354 1.1044 -0.7749 -11.5503 2.0220 2.3346 -29.1994 1.7435 2.0252 12.1991 0.5937 1.2719 8.4547 -0.0000 -0.0000 0.0000 -96.2892 -60.4122 29.9743 30.0858 -40.9668 -11.4658 -0.0000 0.0000 -83.4598 36.3974 -9.3573 -6.8349 -7.1250 0.0000 -0.0000 6.6617 18.4547 -4.2391 -0.0000 -0.0000 0.0000 76.2009 21.8660 59.0532 -87.2186 59.9707 -57.5915 0.0000 -0.0000 -82.9551 -57.3911 -49.1313 49.7692 7.1250 -0.0000 -0.0000 -134.8296 83.3727 -139.7324
-0.0968 18.8651 4.2775 -3.3935 -3.5792 19.2259 0.0000 0.0000 0.0000 -9.0846 -7.2343 -32.9287 2.4472 9.7412 28.1427 0.7589 4.3551 -18.6018 8.0897 -16.1849 -52.8852 0.0000 0.0000 0.0000 0.0000 0.0000 0.0000 0.0000 0.0000 0.0000 -0.0000 -0.0000 0.0000 -0.0000 -0.0000 0.0000 -10.8868 3.6752 54.2823 -4.4006 -2.5645 8.1291 1.1317 -0.8083 -11.5541 2.0288 2.3553 -29.3779 1.7473 2.0453 12.1377 0.5986 1.2824 8.4604 0.0000 0.0000 0.0000 -96.5133 -60.5479 29.8169 29.8872 -40.7965 -11.3358 -0.0000 0.0000 -83.1519 36.5157 -9.5521 -7.0044 -7.1250 0.0000 -0.0000 6.7179 18.2012 -4.3132 0.0000 0.0000 0.0000 76.1531 21.8967 59.1816 -86.7191 59.9593 -57.1590 0.0000 -0.0000 -82.8906 -56.9288 -49.2446 49.3165 7.1250 -0.0000 -0.0000 -135.0158 83.6236 -139.7104
-0.0967 18.8633 4.2753 -3.3565 -3.4626 19.2312 0.0000 0.0000 0.0000 -9.0976 -7.3398 -32.9433 2.4474 9.7416 28.1438 0.7562 4.3870 -18.5936 8.1094 -16.1991 -52.9557 0.0000 0.0000 0.0000 0.0000 0.0000 0.0000 0.0000 0.0000 0.0000 -0.0000 -0.0000 0.0000 -0.0000 -0.0000 0.0000 -10.8513 3.5678 54.2593 -4.4111 -2.6627 8.1371 1.1512 -0.8500 -11.5434 1.9695 2.3395 -29.5706 1.7778 2.0374 12.0198 0.6185 1.2790 8.4474 0.0000 0.0000 0.0000 -96.4836 -60.6365 29.6262 29.7925 -40.7149 -11.2740 -0.0000 0.0000 -82.8767 36.4548 -9.7054 -7.0989 -7.1250 0.0000 -0.0000 6.6551 18.0229 -4.2986 0.0000 0.0000 0.0000 76.1369 21.9217 59.3671 -86.4065 59.9512 -56.8885 0.0000 -0.0000 -82.9739 -56.5568 -48.8578 48.7488 7.1250 -0.0000 -0.0000 -130.8640 83.9221 -135.6316
-0.0965 18.8617 4.2725 -3.3153 -3.3583 19.2286 0.0000 0.0000 0.0000 -9.1186 -7.4406 -32.9332 2.4443 9.7359 28.1258 0.7529 4.4252 -18.5837 8.1129 -16.2017 -52.9685 0.0000 0.0000 0.0000 0.0000 0.0000 0.0000 0.0000 0.0000 0.0000 -0.0000 -0.0000 0.0000 -0.0000 -0.0000 0.0000 -10.7952 3.4540 54.2569 -4.3874 -2.7544 8.1437 1.1963 -0.8904 -11.5366 1.9030 2.3041 -29.6116 1.7513 2.0240 11.7773 0.6157 1.2645 8.3684 -0.0000 -0.0000 0.0000 -96.0816 -60.6482 29.4492 29.8687 -40.7806 -11.3238 -0.0000 0.0000 -82.7779 36.4027 -9.9289 -7.2455 -7.1250 0.0000 -0.0000 6.5890 17.7585 -4.2939 -0.0000 -0.0000 0.0000 76.1505 21.9324 59.5542 -86.1095 59.9427 -56.6314 0.0000 -0.0000 -82.9435 -55.8979 -48.6008 47.9286 7.1250 -0.0000 -0.0000 -126.8471 84.3398 -131.5227
-0.0982 18.8606 4.2685 -3.2641 -3.3000 19.2331 0.0000 0.0000 0.0000 -9.1734 -7.4469 -32.9421 2.4374 9.7232 28.0849 0.7489 4.4203 -18.5390 8.1217 -16.2081 -53.0000 0.0000 0.0000 0.0000 0.0000 0.0000 0.0000 0.0000 0.0000 0.0000 -0.0000 -0.0000 0.0000 -0.0000 -0.0000 0.0000 -10.7504 3.3662 54.2397 -4.3587 -2.8197 8.1563 1.2402 -0.9204 -11.5209 1.8958 2.3004 -29.6313 1.6777 2.0403 11.4886 0.5911 1.2613 8.2713 -0.0000 -0.0000 0.0000 -95.5875 -60.7427 29.2733 29.9673 -40.8653 -11.3882 -0.0000 0.0000 -82.6417 36.4496 -10.1349 -7.4051 -7.1250 0.0000 -0.0000 6.5934 17.5012 -4.3343 -0.0000 -0.0000 0.0000 76.2901 21.9587 59.7149 -85.6660 59.9289 -56.2475 0.0000 -0.0000 -82.6902 -54.5617 -48.6218 46.5160 7.1250 -0.0000 -0.0000 -123.2141 85.0881 -127.4293
-0.0991 18.8608 4.2647 -3.1652 -3.2620 19.2300 0.0000 0.0000 0.0000 -9.2990 -7.4269 -32.9436 2.4279 9.7056 28.0286 0.7469 4.3891 -18.4982 8.1234 -16.2093 -53.0061 0.0000 0.0000 0.0000 0.0000 0.0000 0.0000 0.0000 0.0000 0.0000 -0.0000 -0.0000 0.0000 -0.0000 -0.0000 0.0000 -10.6787 3.2971 54.2391 -4.3403 -2.8556 8.1457 1.2469 -0.9356 -11.5381 1.8992 2.2735 -29.6153 1.6250 2.0179 11.1929 0.5658 1.2425 8.1666 0.0000 -0.0000 0.0000 -95.2829 -60.8537 29.1953 30.0144 -40.9058 -11.4191 -0.0000 0.0000 -82.4283 36.5640 -10.4099 -7.6331 -7.1250 0.0000 -0.0000 6.6344 17.1499 -4.4130 0.0000 -0.0000 0.0000 76.5365 21.9541 59.8249 -85.2426 59.9143 -55.8812 0.0000 -0.0000 -82.5703 -53.1491 -48.6037 45.0256 7.1250 -0.0000 -0.0000 -117.7312 85.8496 -121.4738
-0.0995 18.8623 4.2605 -3.0198 -3.2386 19.1936 0.0000 0.0000 0.0000 -9.4682 -7.4485 -32.8895 2.4163 9.6841 27.9597 0.7468 4.3567 -18.4763 8.0831 -16.1800 -52.8614 0.0000 0.0000 0.0000 0.0000 0.0000 0.0000 0.0000 0.0000 0.0000 -0.0000 -0.0000 0.0000 -0.0000 -0.0000 0.0000 -10.6647 3.2395 54.2639 -4.2349 -2.9003 8.1090 1.3781 -0.9549 -11.5762 1.6773 2.2138 -29.5758 1.6228 2.0297 10.9477 0.5986 1.2356 8.0732 0.0000 -0.0000 0.0000 -95.0374 -60.9297 28.9263 30.1070 -40.9849 -11.4797 -0.0000 0.0000 -82.2336 36.7473 -10.8338 -7.9889 -7.1250 0.0000 -0.0000 6.7009 16.6063 -4.5377 0.0000 -0.0000 0.0000 76.6713 22.0466 60.0672 -84.7948 59.8974 -55.4937 0.0000 -0.0000 -82.8167 -52.0699 -48.4217 43.8270 7.1250 -0.0000 -0.0000 -109.6249 86.3773 -113.0792
-0.0991 18.8640 4.2553 -2.8645 -3.2052 19.1622 0.0000 0.0000 0.0000 -9.6405 -7.4889 -32.8441 2.4024 9.6583 27.8773 0.7372 4.3602 -18.3786 8.0841 -16.1808 -52.8652 0.0000 0.0000 0.0000 0.0000 0.0000 0.0000 0.0000 0.0000 0.0000 -0.0000 -0.0000 0.0000 -0.0000 -0.0000 0.0000 -10.6925 3.1218 54.2560 -4.0190 -3.0112 8.0773 1.6820 -1.0071 -11.5912 1.1796 2.1822 -29.6497 1.6657 2.1744 10.7850 0.7118 1.2855 8.0210 0.0000 -0.0000 0.0000 -94.5776 -61.0339 28.1917 30.3035 -41.1521 -11.6088 -0.0000 0.0000 -81.9886 36.8827 -11.3321 -8.3873 -7.1250 0.0000 -0.0000 6.7221 15.9780 -4.6445 0.0000 -0.0000 0.0000 76.6905 22.3733 60.5892 -84.0604 59.8663 -54.8585 0.0000 -0.0000 -83.0445 -50.5429 -48.2401 42.1855 7.1250 -0.0000 -0.0000 -95.5120 86.9958 -98.5139
-0.0993 18.8653 4.2492 -2.7116 -3.1521 19.1796 0.0000 0.0000 0.0000 -9.8041 -7.5251 -32.8688 2.3871 9.6296 27.7854 0.7207 4.3864 -18.2203 8.1146 -16.2029 -52.9744 0.0000 0.0000 0.0000 0.0000 0.0000 0.0000 0.0000 0.0000 0.0000 -0.0000 -0.0000 0.0000 -0.0000 -0.0000 0.0000 -10.4352 3.0110 54.2490 -3.9523 -2.9931 7.9748 1.6402 -0.9959 -11.7325 1.1945 2.1035 -29.4028 1.5269 2.0965 10.5076 0.6446 1.2311 7.8907 0.0000 0.0000 0.0000 -94.2816 -60.9629 28.2846 30.5741 -41.3804 -11.7873 -0.0000 0.0000 -81.7495 36.8319 -11.8262 -8.7265 -7.1250 0.0000 -0.0000 6.6162 15.3857 -4.6553 0.0000 0.0000 0.0000 77.1039 22.4083 60.7354 -83.1723 59.8231 -54.0906 0.0000 -0.0000 -82.8712 -48.1844 -48.1063 39.7636 7.1250 -0.0000 -0.0000 -68.4934 -87.5922 66.2344
-0.1018 18.8664 4.2431 -2.5468 -3.1148 19.2019 0.0000 0.0000 0.0000 -9.9823 -7.5334 -32.8975 2.3707 9.5988 27.6872 0.7085 4.3883 -18.0922 8.0999 -16.1923 -52.9218 0.0000 0.0000 0.0000 0.0000 0.0000 0.0000 0.0000 0.0000 0.0000 -0.0000 -0.0000 0.0000 -0.0000 -0.0000 0.0000 -10.2022 2.9030 54.1725 -3.8416 -2.9649 7.9034 1.6551 -0.9852 -11.8256 1.2075 2.0867 -29.2804 1.3141 2.1123 10.2573 0.5681 1.2137 7.7886 0.0000 0.0000 0.0000 -93.8493 -61.0208 28.2105 30.8451 -41.6068 -11.9668 -0.0000 0.0000 -81.5221 36.9109 -12.3356 -9.1164 -7.1250 0.0000 -0.0000 6.5946 14.7537 -4.7297 0.0000 0.0000 0.0000 77.5801 22.5402 60.9695 -82.4158 59.7815 -53.4367 0.0000 -0.0000 -82.7902 -46.0490 -47.7714 37.5276 7.1250 -0.0000 -0.0000 -36.1486 -87.2526 34.4963
-0.1039 18.8669 4.2379 -2.3485 -3.0917 19.2069 0.0000 0.0000 0.0000 -10.2044 -7.5520 -32.8879 2.3529 9.5655 27.5808 0.7020 4.3792 -18.0166 8.0698 -16.1703 -52.8136 0.0000 0.0000 0.0000 0.0000 0.0000 0.0000 0.0000 0.0000 0.0000 -0.0000 -0.0000 0.0000 -0.0000 -0.0000 0.0000 -10.0137 2.8308 53.8823 -3.6997 -2.8733 7.9789 1.7000 -0.9616 -11.7221 1.2668 2.1123 -29.2981 1.0734 2.1689 9.9942 0.4824 1.2154 7.7037 0.0000 -0.0000 0.0000 -93.5034 -61.3981 28.1773 31.0295 -41.7596 -12.0894 -0.0000 0.0000 -81.4163 37.2902 -12.9796 -9.7061 -7.1250 0.0000 -0.0000 6.7510 13.9029 -4.9664 0.0000 -0.0000 0.0000 78.1504 22.9356 61.2055 -81.6805 59.7368 -52.8015 0.0000 -0.0000 -82.8420 -44.7926 -47.3528 36.1382 7.1250 -0.0000 -0.0000 -22.6613 -86.5507 21.2958
-0.1064 18.8667 4.2299 -2.1135 -3.0880 19.1912 0.0000 0.0000 0.0000 -10.4630 -7.5879 -32.8573 2.3368 9.5349 27.4833 0.6960 4.3869 -17.9574 8.0645 -16.1665 -52.7948 0.0000 0.0000 0.0000 0.0000 0.0000 0.0000 0.0000 0.0000 0.0000 -0.0000 -0.0000 0.0000 -0.0000 -0.0000 0.0000 -9.5975 2.8484 53.6115 -3.7166 -2.5882 8.0661 1.3799 -0.8521 -11.6444 1.7912 2.0116 -29.3610 0.7185 1.8946 9.7842 0.2385 1.0659 7.6498 -0.0000 -0.0000 0.0000 -93.6572 -61.8575 29.2237 31.1772 -41.8813 -12.1880 -0.0000 0.0000 -81.5159 37.5524 -13.6278 -10.2670 -7.1250 0.0000 -0.0000 6.8239 13.0646 -5.1422 -0.0000 -0.0000 0.0000 79.1020 23.2437 60.8860 -80.9590 59.6889 -52.1785 0.0000 -0.0000 -82.8400 -43.9870 -47.0078 35.2232 7.1250 -0.0000 -0.0000 -16.7377 -85.9623 15.5363
-0.1095 18.8674 4.2210 -1.8862 -3.0852 19.1316 0.0000 0.0000 0.0000 -10.7013 -7.6479 -32.7898 2.3278 9.5178 27.4288 0.6897 4.4247 -17.9137 8.0770 -16.1756 -52.8396 0.0000 0.0000 0.0000 0.0000 0.0000 0.0000 0.0000 0.0000 0.0000 -0.0000 -0.0000 0.0000 -0.0000 -0.0000 0.0000 -9.2287 2.7735 53.5028 -3.6206 -2.4506 7.9986 1.2681 -0.7971 -11.7441 1.9336 1.8919 -29.3855 0.4057 1.7335 9.6335 0.0852 0.9587 7.6051 0.0000 0.0000 0.0000 -93.3508 -62.0617 29.4422 31.4724 -42.1225 -12.3855 -0.0000 0.0000 -81.4932 37.6493 -14.1202 -10.6588 -7.1250 0.0000 -0.0000 6.8094 12.4469 -5.2195 0.0000 0.0000 0.0000 79.9532 23.4960 60.9590 -80.4241 59.6507 -51.7168 0.0000 -0.0000 -82.8591 -42.9018 -46.6227 34.0379 7.1250 -0.0000 -0.0000 -10.7712 -85.2100 9.8402
-0.1009 18.8658 4.2092 -1.6055 -2.9846 19.2818 0.0000 0.0000 0.0000 -10.9336 -8.0257 -32.9042 2.3124 9.4885 27.3356 0.6746 4.6416 -17.8914 8.0728 -16.1726 -52.8246 0.0000 0.0000 0.0000 0.0000 0.0000 0.0000 0.0000 0.0000 0.0000 -0.0000 -0.0000 0.0000 -0.0000 -0.0000 0.0000 -8.7403 2.4871 53.0887 -3.4624 -2.4444 7.9321 1.2422 -0.8043 -11.8104 1.8069 1.7608 -29.2972 0.1216 1.6575 9.3964 -0.0048 0.8841 7.5121 -0.0000 -0.0000 0.0000 -92.9844 -62.2121 29.2986 31.8113 -42.3962 -12.6134 -0.0000 0.0000 -81.1452 37.7143 -14.5759 -11.0125 -7.1250 0.0000 -0.0000 6.7782 11.8803 -5.2756 -0.0000 -0.0000 0.0000 80.6779 23.7271 61.2172 -80.0711 59.6242 -51.4122 0.0000 -0.0000 -82.6775 -41.5960 -46.1445 32.6242 7.1250 -0.0000 -0.0000 -5.5993 -84.2545 5.0116
